# Blender v2.79 (sub 0) OBJ File: 'arrow.blend'
# www.blender.org
mtllib arrow.mtl
o Plane_Plane.001
v -3.489402 -0.481662 -0.000000
v -3.254340 -0.056242 0.000000
v -4.990723 -0.070943 -0.000000
v -3.473912 0.365456 0.000000
v -3.349914 -0.241505 -0.000000
v -3.364126 0.149118 0.000000
v 2.776643 0.146373 0.000000
v 2.747516 -0.241505 -0.000000
v 2.576777 -0.048198 -0.000000
v 3.138021 0.475731 0.000000
v 3.417060 0.487167 0.000000
v 3.334722 0.237862 0.000000
v 3.357594 0.224138 0.000000
v 3.547431 0.494029 0.000000
v 3.684664 0.494029 0.000000
v 3.616048 0.285893 0.000000
v 3.638919 0.279031 0.000000
v 3.803598 0.510039 0.000000
v 3.865353 0.510039 0.000000
v 3.855778 0.326842 0.000000
v 3.982000 0.512486 0.000000
v 3.866629 0.323012 0.000000
v 4.081578 0.514401 0.000000
v 4.110303 0.343970 0.000000
v 4.123707 0.341417 0.000000
v 4.183709 0.518869 0.000000
v 4.320309 0.520784 0.000000
v 4.282010 0.202264 0.000000
v 4.301798 0.197796 0.000000
v 4.446057 0.534189 0.000000
v 4.726279 0.537380 0.000000
v 4.742875 0.521423 0.000000
v 4.747344 0.492060 0.000000
v 4.696917 0.328651 0.000000
v 4.597646 -0.030931 -0.000000
v 4.761994 -0.380586 -0.000000
v 4.854648 -0.569201 -0.000000
v 4.850236 -0.593467 -0.000000
v 4.839205 -0.610013 -0.000000
v 4.786261 -0.611115 -0.000000
v 4.621912 -0.612218 -0.000000
v 4.421164 -0.415882 -0.000000
v 4.407927 -0.419191 -0.000000
v 4.404618 -0.430222 -0.000000
v 4.521537 -0.590158 -0.000000
v 4.521537 -0.600085 -0.000000
v 4.509404 -0.603394 -0.000000
v 4.181809 -0.601188 -0.000000
v 4.085847 -0.496402 -0.000000
v 4.007534 -0.411470 -0.000000
v 3.990989 -0.410367 -0.000000
v 3.985474 -0.421397 -0.000000
v 4.068200 -0.537214 -0.000000
v 4.103496 -0.596776 -0.000000
v 3.962310 -0.597879 -0.000000
v 3.904953 -0.537214 -0.000000
v 3.861937 -0.490887 -0.000000
v 3.848700 -0.488681 -0.000000
v 3.839876 -0.501917 -0.000000
v 3.880687 -0.586849 -0.000000
v 3.876275 -0.593467 -0.000000
v 3.673321 -0.593467 -0.000000
v 3.592801 -0.479857 -0.000000
v 3.575153 -0.454488 -0.000000
v 3.561916 -0.456694 -0.000000
v 3.559710 -0.464415 -0.000000
v 3.597213 -0.579128 -0.000000
v 3.588388 -0.590158 -0.000000
v 3.488015 -0.585746 -0.000000
v 3.229910 -0.388307 -0.000000
v 3.212262 -0.386101 -0.000000
v 3.206747 -0.396028 -0.000000
v 3.395362 -0.579128 -0.000000
v 3.395362 -0.585746 -0.000000
v 3.379920 -0.587952 -0.000000
v 3.081004 -0.578025 -0.000000
v 2.824002 -0.313302 -0.000000
vt 0.161744 0.514382
vt 0.151473 0.532571
vt 0.150856 0.454228
vt 0.909489 0.532920
vt 0.928193 0.519543
vt 0.887940 0.531970
vt 0.883824 0.454374
vt 0.882294 0.454652
vt 0.898830 0.457066
vt 0.755620 0.495501
vt 0.173713 0.495711
vt 0.003906 0.491982
vt 0.165528 0.477126
vt 0.958196 0.496596
vt 0.758733 0.495301
vt 0.835511 0.522094
vt 0.782572 0.516544
vt 0.815630 0.547254
vt 0.831893 0.521947
vt 0.840449 0.547837
vt 0.971770 0.550990
vt 0.972270 0.548055
vt 0.970135 0.552598
vt 0.967809 0.531788
vt 0.946258 0.552070
vt 0.930108 0.519079
vt 0.856821 0.549328
vt 0.860076 0.526489
vt 0.867564 0.549205
vt 0.917979 0.551237
vt 0.931116 0.551306
vt 0.912630 0.533576
vt 0.862754 0.525476
vt 0.881429 0.550696
vt 0.883811 0.531746
vt 0.886448 0.549564
vt 0.898587 0.550781
vt 0.908163 0.550883
vt 0.785767 0.467384
vt 0.778236 0.474620
vt 0.816865 0.465592
vt 0.818771 0.465327
vt 0.975767 0.460928
vt 0.942575 0.458679
vt 0.983419 0.444921
vt 0.977846 0.439638
vt 0.983521 0.442477
vt 0.982832 0.440671
vt 0.960809 0.440546
vt 0.854074 0.463035
vt 0.835458 0.442872
vt 0.808666 0.443495
vt 0.816298 0.464488
vt 0.837097 0.443842
vt 0.837115 0.443103
vt 0.938597 0.458942
vt 0.903350 0.458522
vt 0.897396 0.460681
vt 0.937626 0.457165
vt 0.949548 0.440901
vt 0.946669 0.441237
vt 0.948894 0.440782
vt 0.910991 0.449973
vt 0.856438 0.442985
vt 0.849534 0.442359
vt 0.857655 0.444602
vt 0.851912 0.461590
vt 0.920571 0.442527
vt 0.852198 0.462727
vt 0.868536 0.442384
vt 0.856676 0.459266
vt 0.881317 0.453081
vt 0.885768 0.442109
vt 0.886257 0.442895
vt 0.905806 0.445139
vt 0.888908 0.448796
vt 0.910023 0.441100
vt 0.895682 0.441490
vt 0.771145 0.477434
vt 0.776222 0.513907
vn -0.0000 -0.0000 1.0000
vn 0.0000 0.0000 -1.0000
usemtl None
s off
f 6/1/1 4/2/1 1/3/1
f 24/4/2 28/5/2 22/6/2
f 57/7/2 58/8/2 52/9/2
f 9/10/1 6/1/1 2/11/1
f 3/12/1 1/3/1 4/2/1
f 1/3/1 5/13/1 6/1/1
f 5/13/1 2/11/1 6/1/1
f 35/14/2 9/15/2 13/16/2
f 9/15/2 7/17/2 13/16/2
f 7/17/2 10/18/2 12/19/2
f 10/18/2 11/20/2 12/19/2
f 32/21/2 33/22/2 31/23/2
f 33/22/2 34/24/2 31/23/2
f 30/25/2 31/23/2 34/24/2
f 29/26/2 30/25/2 34/24/2
f 34/24/2 35/14/2 29/26/2
f 7/17/2 12/19/2 13/16/2
f 13/16/2 14/27/2 16/28/2
f 14/27/2 15/29/2 16/28/2
f 26/30/2 27/31/2 25/32/2
f 27/31/2 28/5/2 25/32/2
f 28/5/2 29/26/2 35/14/2
f 35/14/2 13/16/2 17/33/2
f 13/16/2 16/28/2 17/33/2
f 17/33/2 18/34/2 20/35/2
f 18/34/2 19/36/2 20/35/2
f 28/5/2 35/14/2 17/33/2
f 22/6/2 21/37/2 24/4/2
f 21/37/2 23/38/2 24/4/2
f 17/33/2 20/35/2 22/6/2
f 25/32/2 28/5/2 24/4/2
f 28/5/2 17/33/2 22/6/2
f 77/39/2 8/40/2 71/41/2
f 8/40/2 9/15/2 71/41/2
f 70/42/2 9/15/2 35/14/2
f 35/14/2 36/43/2 42/44/2
f 36/43/2 37/45/2 40/46/2
f 37/45/2 38/47/2 40/46/2
f 38/47/2 39/48/2 40/46/2
f 40/46/2 41/49/2 36/43/2
f 41/49/2 42/44/2 36/43/2
f 9/15/2 70/42/2 71/41/2
f 70/42/2 35/14/2 64/50/2
f 75/51/2 76/52/2 72/53/2
f 76/52/2 77/39/2 72/53/2
f 73/54/2 74/55/2 75/51/2
f 72/53/2 73/54/2 75/51/2
f 35/14/2 42/44/2 43/56/2
f 71/41/2 72/53/2 77/39/2
f 35/14/2 43/56/2 50/57/2
f 51/58/2 35/14/2 50/57/2
f 44/59/2 45/60/2 47/61/2
f 45/60/2 46/62/2 47/61/2
f 35/14/2 51/58/2 64/50/2
f 43/56/2 44/59/2 49/63/2
f 68/64/2 69/65/2 67/66/2
f 69/65/2 70/42/2 66/67/2
f 66/67/2 67/66/2 69/65/2
f 47/61/2 48/68/2 44/59/2
f 48/68/2 49/63/2 44/59/2
f 49/63/2 50/57/2 43/56/2
f 65/69/2 66/67/2 70/42/2
f 62/70/2 63/71/2 59/72/2
f 63/71/2 64/50/2 58/8/2
f 59/72/2 63/71/2 58/8/2
f 64/50/2 65/69/2 70/42/2
f 61/73/2 62/70/2 59/72/2
f 59/72/2 60/74/2 61/73/2
f 58/8/2 64/50/2 51/58/2
f 58/8/2 51/58/2 52/9/2
f 52/9/2 53/75/2 56/76/2
f 53/75/2 54/77/2 55/78/2
f 55/78/2 56/76/2 53/75/2
f 56/76/2 57/7/2 52/9/2
f 2/11/1 5/13/1 9/10/1
f 5/13/1 8/79/1 9/10/1
f 9/10/1 7/80/1 6/1/1
